
<svg width="358" height="160" viewBox="0 0 358 160" fill="none" xmlns="http://www.w3.org/2000/svg">
<g clip-path="url(#clip0_5835_18712)">
<g opacity="0.5">
<g opacity="0.5" filter="url(#filter0_d_5835_18712)">
<path fill-rule="evenodd" clip-rule="evenodd" d="M128.8 48.1204C129.414 47.7631 130.206 47.9885 130.5 48.6337C131.856 51.6071 132.611 54.9104 132.611 58.3894C132.611 61.8687 131.856 65.172 130.5 68.1454C130.206 68.7906 129.414 69.016 128.8 68.6587L123.508 65.5818C123.125 65.3592 122.89 64.9506 122.89 64.5088V52.2703C122.89 51.8285 123.125 51.4199 123.508 51.1973L128.8 48.1204ZM127.969 70.1622C128.575 70.5145 128.773 71.2975 128.372 71.8712C124.504 77.402 118.322 81.2048 111.224 81.8847C110.519 81.9523 109.928 81.3848 109.928 80.6786V74.2996C109.928 73.8576 110.163 73.449 110.546 73.2264L121.265 66.9943C121.653 66.7687 122.133 66.7687 122.521 66.9943L127.969 70.1622Z" fill="#F8F8F8"/>
</g>
</g>
<g opacity="0.88">
<g opacity="0.88" filter="url(#filter1_d_5835_18712)">
<path fill-rule="evenodd" clip-rule="evenodd" d="M107.934 36.1014C107.934 35.3952 107.343 34.8277 106.638 34.8953C99.5403 35.5752 93.358 39.378 89.4906 44.9088C89.0895 45.4825 89.2872 46.2655 89.893 46.6178L95.3415 49.7857C95.7294 50.0116 96.2093 50.0116 96.5975 49.7857L107.316 43.5536C107.699 43.331 107.934 42.9224 107.934 42.4804V36.1014ZM89.0611 68.6591C88.4471 69.0163 87.6553 68.7909 87.3611 68.1457C86.0051 65.1723 85.25 61.869 85.25 58.3897C85.25 54.9107 86.0051 51.6074 87.3611 48.634C87.6553 47.9888 88.4471 47.7634 89.0611 48.1207L94.3531 51.1976C94.736 51.4202 94.9716 51.8288 94.9716 52.2706V64.5089C94.9716 64.9509 94.736 65.3595 94.3531 65.5821L89.0611 68.6591ZM109.928 36.1014C109.928 35.3952 110.519 34.8277 111.224 34.8953C118.322 35.5752 124.504 39.378 128.372 44.9088C128.773 45.4825 128.575 46.2655 127.969 46.6178L122.521 49.7857C122.133 50.0116 121.653 50.0116 121.265 49.7857L110.546 43.5536C110.163 43.331 109.928 42.9224 109.928 42.4804V36.1014Z" fill="#F8F8F8"/>
</g>
</g>
<g filter="url(#filter2_d_5835_18712)">
<path fill-rule="evenodd" clip-rule="evenodd" d="M81.2617 58.3901C81.2617 62.448 82.1435 66.3112 83.7301 69.791C84.4767 71.4284 85.9252 72.4286 87.4828 72.7148C87.5462 72.7265 87.599 72.7402 87.6412 72.7539C87.6514 72.7572 87.6606 72.7604 87.6688 72.7637L87.6812 72.7683C87.6849 72.7697 87.6884 72.7712 87.6915 72.7726C91.9736 79.0439 98.9882 83.3284 107.04 83.9133L107.052 83.923L107.064 83.9322C107.068 83.9362 107.073 83.9404 107.079 83.9452L107.082 83.9477C107.115 83.9771 107.153 84.016 107.195 84.0646C108.222 85.2647 109.813 86.0137 111.605 85.8419C119.91 85.0464 127.131 80.5973 131.643 74.1443C132.04 73.5779 132.307 72.9609 132.45 72.3254C132.523 71.9973 132.726 71.6425 132.973 71.4109C133.448 70.9644 133.844 70.42 134.131 69.791C135.718 66.3112 136.6 62.448 136.6 58.3901C136.6 54.3324 135.718 50.4692 134.131 46.9894C133.844 46.3604 133.448 45.8159 132.973 45.3694C132.726 45.1378 132.523 44.7831 132.45 44.4547C132.307 43.8195 132.04 43.2022 131.643 42.6361C127.131 36.1831 119.91 31.7338 111.605 30.9382C110.89 30.8699 110.196 30.948 109.551 31.1517C109.178 31.2696 108.683 31.2696 108.31 31.1517C107.665 30.948 106.971 30.8699 106.256 30.9382C97.9519 31.7338 90.73 36.1831 86.2179 42.6361C85.8217 43.2022 85.5542 43.8195 85.4116 44.4547C85.3381 44.7831 85.1354 45.1378 84.8886 45.3694C84.4129 45.8159 84.017 46.3604 83.7301 46.9894C82.1435 50.4692 81.2617 54.3324 81.2617 58.3901ZM130.008 43.7726C125.818 37.7806 119.115 33.6547 111.415 32.917C110.968 32.8741 110.543 32.9234 110.154 33.0464C109.389 33.2884 108.472 33.2884 107.707 33.0464C107.318 32.9234 106.893 32.8741 106.446 32.917C98.7459 33.6547 92.0436 37.7806 87.8538 43.7726C87.6065 44.1262 87.444 44.5044 87.3577 44.8885C87.1969 45.6053 86.7923 46.313 86.2555 46.8166C85.9683 47.0864 85.7248 47.4187 85.5455 47.8119C84.0744 51.0384 83.2559 54.6216 83.2559 58.3901C83.2559 62.1585 84.0744 65.7418 85.5455 68.9685C86.0042 69.9745 86.8835 70.5835 87.8446 70.76C88.4098 70.864 88.9699 71.1078 89.2915 71.5827C93.2547 77.4329 99.7827 81.4202 107.272 81.937C107.845 81.9767 108.338 82.3382 108.712 82.7742C109.346 83.5149 110.314 83.9689 111.415 83.8634C119.115 83.1257 125.818 78.9997 130.008 73.0077C130.255 72.654 130.417 72.276 130.503 71.8918C130.664 71.1749 131.069 70.4673 131.606 69.9637C131.893 69.694 132.136 69.3617 132.316 68.9685C133.787 65.7418 134.605 62.1585 134.605 58.3901C134.605 54.6216 133.787 51.0384 132.316 47.8119C132.136 47.4187 131.893 47.0864 131.606 46.8166C131.069 46.313 130.664 45.6053 130.503 44.8885C130.417 44.5044 130.255 44.1262 130.008 43.7726ZM110.187 45.3296C109.411 44.8784 108.451 44.8784 107.675 45.3296L98.2026 50.8373C97.4368 51.2825 96.9658 52.0997 96.9658 52.9835V63.7948C96.9658 64.6783 97.4368 65.4956 98.2026 65.9408L107.675 71.4484C108.451 71.8997 109.411 71.8997 110.187 71.4484L119.659 65.9408C120.425 65.4956 120.896 64.6783 120.896 63.7948V52.9835C120.896 52.0997 120.425 51.2825 119.659 50.8373L110.187 45.3296ZM249.06 38.7002H238.81C237.984 38.7002 237.314 39.3698 237.314 40.1958V77.0964C237.314 77.9224 237.984 78.5918 238.81 78.5918H277.986C278.811 78.5918 279.482 77.9224 279.482 77.0964V66.9037C279.482 66.0777 278.811 65.4083 277.986 65.4083H250.555V40.1958C250.555 39.3698 249.887 38.7002 249.06 38.7002ZM283.055 40.2522V77.0962C283.055 77.9222 283.723 78.5916 284.551 78.5916H325.601C326.426 78.5916 327.094 77.9222 327.094 77.0962V69.0627C327.094 68.237 326.426 67.5674 325.601 67.5674H296.295V63.9305H323.611C324.437 63.9305 325.107 63.2611 325.107 62.4352V54.7995C325.107 53.9736 324.437 53.3042 323.611 53.3042H296.295V49.781H325.601C326.426 49.781 327.094 49.1114 327.094 48.2857V40.2522C327.094 39.4262 326.426 38.7568 325.601 38.7568H284.551C283.723 38.7568 283.055 39.4262 283.055 40.2522ZM30.9053 90.1027V127.164C30.9053 127.99 31.5557 128.66 32.3582 128.66H42.369C43.1715 128.66 43.8222 127.99 43.8222 127.164V120.558H58.6238C62.6708 120.558 74.9777 118.846 74.9777 104.012C74.9777 89.121 61.8945 88.6074 58.1803 88.6074H32.3582C31.5557 88.6074 30.9053 89.2768 30.9053 90.1027ZM43.8222 100.418V108.748H57.7922C59.7878 108.748 62.8924 108.291 62.8924 104.412C62.8924 100.532 59.3999 100.418 57.5705 100.418H43.8222ZM88.582 88.6074H78.6229C77.8204 88.6074 77.1699 89.2768 77.1699 90.1027V127.004C77.1699 127.83 77.8204 128.499 78.6229 128.499H116.686C117.489 128.499 118.139 127.83 118.139 127.004V116.811C118.139 115.985 117.489 115.316 116.686 115.316H90.035V90.1027C90.035 89.2768 89.3843 88.6074 88.582 88.6074ZM225.476 127.004C225.476 127.83 224.825 128.499 224.023 128.499H208.609C208.171 128.499 207.757 128.296 207.481 127.947L191.504 107.727L191.498 107.72L188.924 104.462V127.013C188.919 127.835 188.27 128.499 187.471 128.499H177.512C176.709 128.499 176.059 127.83 176.059 127.004V90.1027C176.059 89.2768 176.709 88.6074 177.512 88.6074H193.257C193.691 88.6074 194.103 88.8079 194.379 89.1534L194.384 89.1599L212.611 112.247V108.045V108.035V90.1027C212.611 89.2768 213.261 88.6074 214.064 88.6074H224.023C224.825 88.6074 225.476 89.2768 225.476 90.1027V127.004ZM275.812 100.352V90.1027C275.812 89.2768 276.463 88.6074 277.266 88.6074H325.544C326.346 88.6074 326.997 89.2768 326.997 90.1027V100.352C326.997 101.178 326.346 101.848 325.544 101.848H307.836V127.004C307.836 127.83 307.185 128.499 306.385 128.499H296.425C295.622 128.499 294.971 127.83 294.971 127.004V101.848H277.266C276.463 101.848 275.812 101.178 275.812 100.352ZM229.56 90.1596V127.003C229.56 127.829 230.21 128.499 231.013 128.499H270.898C271.701 128.499 272.352 127.829 272.352 127.003V118.97C272.352 118.144 271.701 117.475 270.898 117.475H242.425V113.838H268.966C269.769 113.838 270.417 113.168 270.417 112.343V104.707C270.417 103.881 269.769 103.211 268.966 103.211H242.425V99.6883H270.898C271.701 99.6883 272.352 99.0189 272.352 98.1929V90.1596C272.352 89.3337 271.701 88.6641 270.898 88.6641H231.013C230.21 88.6641 229.56 89.3337 229.56 90.1596ZM155.94 88.7207C156.512 88.7207 157.031 89.0665 157.266 89.604L173.3 126.391C173.731 127.381 173.027 128.499 171.974 128.499H160.254C159.68 128.499 159.16 128.151 158.927 127.611L156.822 122.738L156.817 122.726L156.439 121.85H137.28L134.74 127.62L134.734 127.632C134.497 128.16 133.983 128.499 133.416 128.499H121.747C120.693 128.499 119.99 127.379 120.423 126.39L136.507 89.6025C136.742 89.0657 137.261 88.7207 137.833 88.7207H155.94ZM141.862 110.314L146.832 99.9154L148.13 102.632L148.136 102.644L150.771 108.159L150.777 108.171L151.801 110.314H141.862ZM232.697 38.7002C233.523 38.7002 234.192 39.3698 234.192 40.1958V50.7672C234.192 51.2848 233.925 51.7657 233.485 52.0382L208.336 67.6244H232.697C233.523 67.6244 234.192 68.294 234.192 69.12V77.0964C234.192 77.9224 233.523 78.5918 232.697 78.5918H190.51C189.684 78.5918 189.015 77.9224 189.015 77.0964V66.7548C189.015 66.2358 189.284 65.7539 189.726 65.4816L210.718 52.5498L210.722 52.5473L215.212 49.7812H209.938H209.933H190.51C189.684 49.7812 189.015 49.1119 189.015 48.2859V40.1958C189.015 39.3698 189.684 38.7002 190.51 38.7002H232.697ZM185.248 38.7002C186.074 38.7002 186.743 39.3698 186.743 40.1958V50.7672C186.743 51.2848 186.475 51.7657 186.035 52.0382L160.887 67.6244H185.248C186.074 67.6244 186.743 68.294 186.743 69.12V77.0964C186.743 77.9224 186.074 78.5918 185.248 78.5918H143.061C142.235 78.5918 141.565 77.9224 141.565 77.0964V66.7548C141.565 66.2358 141.834 65.7539 142.276 65.4816L163.269 52.5498L163.273 52.5473L167.763 49.7812H162.489H162.484H143.061C142.235 49.7812 141.565 49.1119 141.565 48.2859V40.1958C141.565 39.3698 142.235 38.7002 143.061 38.7002H185.248ZM30.9053 77.2572V40.1958C30.9053 39.3698 31.5747 38.7002 32.4006 38.7002H58.9769C62.7997 38.7002 76.2651 39.2138 76.2651 54.1052C76.2651 68.9392 63.5984 70.651 59.4333 70.651H44.1994V77.2572C44.1994 78.0832 43.5298 78.7526 42.7041 78.7526H32.4006C31.5747 78.7526 30.9053 78.0832 30.9053 77.2572ZM44.1994 58.8407V50.5107H58.3494C60.2321 50.5107 63.8268 50.6246 63.8268 54.5043C63.8268 58.3842 60.6315 58.8407 58.5775 58.8407H44.1994Z" fill="#F8F8F8"/>
</g>
</g>
<defs>
<filter id="filter0_d_5835_18712" x="77.9277" y="31.951" width="86.6831" height="97.9391" filterUnits="userSpaceOnUse" color-interpolation-filters="sRGB">
<feFlood flood-opacity="0" result="BackgroundImageFix"/>
<feColorMatrix in="SourceAlpha" type="matrix" values="0 0 0 0 0 0 0 0 0 0 0 0 0 0 0 0 0 0 127 0" result="hardAlpha"/>
<feOffset dy="16"/>
<feGaussianBlur stdDeviation="16"/>
<feComposite in2="hardAlpha" operator="out"/>
<feColorMatrix type="matrix" values="0 0 0 0 0 0 0 0 0 0 0 0 0 0 0 0 0 0 0.25 0"/>
<feBlend mode="normal" in2="BackgroundImageFix" result="effect1_dropShadow_5835_18712"/>
<feBlend mode="normal" in="SourceGraphic" in2="effect1_dropShadow_5835_18712" result="shape"/>
</filter>
<filter id="filter1_d_5835_18712" x="53.25" y="18.8898" width="107.331" height="97.9385" filterUnits="userSpaceOnUse" color-interpolation-filters="sRGB">
<feFlood flood-opacity="0" result="BackgroundImageFix"/>
<feColorMatrix in="SourceAlpha" type="matrix" values="0 0 0 0 0 0 0 0 0 0 0 0 0 0 0 0 0 0 127 0" result="hardAlpha"/>
<feOffset dy="16"/>
<feGaussianBlur stdDeviation="16"/>
<feComposite in2="hardAlpha" operator="out"/>
<feColorMatrix type="matrix" values="0 0 0 0 0 0 0 0 0 0 0 0 0 0 0 0 0 0 0.25 0"/>
<feBlend mode="normal" in2="BackgroundImageFix" result="effect1_dropShadow_5835_18712"/>
<feBlend mode="normal" in="SourceGraphic" in2="effect1_dropShadow_5835_18712" result="shape"/>
</filter>
<filter id="filter2_d_5835_18712" x="-1.09473" y="14.9141" width="360.189" height="161.746" filterUnits="userSpaceOnUse" color-interpolation-filters="sRGB">
<feFlood flood-opacity="0" result="BackgroundImageFix"/>
<feColorMatrix in="SourceAlpha" type="matrix" values="0 0 0 0 0 0 0 0 0 0 0 0 0 0 0 0 0 0 127 0" result="hardAlpha"/>
<feOffset dy="16"/>
<feGaussianBlur stdDeviation="16"/>
<feComposite in2="hardAlpha" operator="out"/>
<feColorMatrix type="matrix" values="0 0 0 0 0 0 0 0 0 0 0 0 0 0 0 0 0 0 0.25 0"/>
<feBlend mode="normal" in2="BackgroundImageFix" result="effect1_dropShadow_5835_18712"/>
<feBlend mode="normal" in="SourceGraphic" in2="effect1_dropShadow_5835_18712" result="shape"/>
</filter>
<clipPath id="clip0_5835_18712">
<rect width="358" height="159.554" fill="white"/>
</clipPath>
</defs>
</svg>
