
<svg width="50" height="50" viewBox="0 0 48 48" fill="none" xmlns="http://www.w3.org/2000/svg">
<g opacity="0.5">
<path d="M39.1376 33.3877C39.6192 33.6687 39.7763 34.2933 39.4575 34.7508C36.3824 39.1628 31.4667 42.1963 25.8232 42.7387C25.2624 42.7926 24.7925 42.34 24.7925 41.7766V36.688C24.7925 36.3356 24.9797 36.0096 25.2841 35.832L33.8067 30.8605C34.1152 30.6806 34.4968 30.6806 34.8053 30.8605L39.1376 33.3877Z" fill="#25174E"/>
<path d="M39.7981 15.8057C40.2864 15.5209 40.916 15.7006 41.1499 16.2152C42.2279 18.5872 42.8284 21.2222 42.8284 23.9975C42.8284 26.7728 42.2279 29.4079 41.1499 31.7799C40.916 32.2944 40.2864 32.4742 39.7981 32.1893L35.5903 29.7348C35.2858 29.5572 35.0986 29.2313 35.0986 28.8788V19.1163C35.0986 18.7638 35.2858 18.4379 35.5903 18.2603L39.7981 15.8057Z" fill="#25174E"/>
</g>
<g opacity="0.88">
<path d="M23.2069 6.21827C23.2069 5.65487 22.737 5.20227 22.1762 5.25616C16.5327 5.79851 11.617 8.83205 8.54191 13.244C8.22304 13.7015 8.38013 14.3262 8.86182 14.6072L13.194 17.1343C13.5026 17.3143 13.8841 17.3143 14.1927 17.1343L22.7152 12.1628C23.0197 11.9852 23.2069 11.6593 23.2069 11.3068V6.21827Z" fill="#25174E"/>
<path d="M8.20115 32.1892C7.7129 32.474 7.08327 32.2943 6.84939 31.7797C5.77133 29.4077 5.1709 26.7727 5.1709 23.9974C5.1709 21.2221 5.77133 18.5871 6.84939 16.2151C7.08327 15.7005 7.7129 15.5208 8.20115 15.8056L12.409 18.2601C12.7134 18.4377 12.9006 18.7637 12.9006 19.1161V28.8787C12.9006 29.2311 12.7134 29.5571 12.409 29.7347L8.20115 32.1892Z" fill="#25174E"/>
<path d="M24.7925 6.21827C24.7925 5.65487 25.2624 5.20227 25.8232 5.25616C31.4667 5.79851 36.3824 8.83205 39.4575 13.244C39.7763 13.7015 39.6192 14.3262 39.1376 14.6072L34.8053 17.1343C34.4968 17.3143 34.1152 17.3143 33.8067 17.1343L25.2841 12.1628C24.9797 11.9852 24.7925 11.6593 24.7925 11.3068V6.21827Z" fill="#25174E"/>
</g>
<path d="M23.0012 13.5802C23.6183 13.2202 24.3814 13.2202 24.9985 13.5802L32.53 17.9736C33.1389 18.3288 33.5134 18.9807 33.5134 19.6856V28.3097C33.5134 29.0146 33.1389 29.6665 32.53 30.0217L24.9985 34.4151C24.3814 34.7751 23.6183 34.7751 23.0012 34.4151L15.4696 30.0217C14.8607 29.6665 14.4863 29.0146 14.4863 28.3097V19.6856C14.4863 18.9807 14.8607 18.3288 15.4696 17.9736L23.0012 13.5802Z" fill="#25174E"/>
<path fill-rule="evenodd" clip-rule="evenodd" d="M2 23.9976C2 27.2345 2.70108 30.3162 3.96268 33.0921C4.55631 34.3982 5.70794 35.1961 6.94654 35.4244C6.99677 35.4337 7.03881 35.4446 7.07236 35.4557C7.0888 35.4611 7.10209 35.4661 7.1125 35.4705C10.5172 40.4732 16.0946 43.891 22.4967 44.3575C22.5022 44.3617 22.5085 44.3667 22.5156 44.3726C22.52 44.3763 22.5247 44.3804 22.5297 44.3849C22.5561 44.4084 22.5866 44.4393 22.6197 44.4781C23.4366 45.4355 24.702 46.0329 26.1269 45.8959C32.7294 45.2614 38.4716 41.7123 42.0594 36.5648C42.3743 36.1129 42.587 35.6207 42.7003 35.1138C42.7589 34.8521 42.92 34.569 43.1162 34.3843C43.4945 34.0281 43.8093 33.5938 44.0373 33.0921C45.2989 30.3162 46 27.2345 46 23.9977C46 20.7608 45.2989 17.6791 44.0373 14.9032C43.8093 14.4015 43.4945 13.9672 43.1162 13.611C42.92 13.4263 42.7589 13.1433 42.7003 12.8815C42.587 12.3746 42.3743 11.8824 42.0594 11.4306C38.4716 6.28301 32.7294 2.73388 26.1269 2.09936C25.5583 2.04471 25.006 2.1071 24.4935 2.26958C24.1968 2.36365 23.8032 2.36365 23.5065 2.26958C22.994 2.1071 22.4417 2.04471 21.8731 2.09936C15.2706 2.73388 9.52842 6.28302 5.94062 11.4306C5.62572 11.8824 5.41296 12.3746 5.29966 12.8815C5.24114 13.1433 5.07999 13.4263 4.88378 13.611C4.5055 13.9672 4.19069 14.4015 3.96268 14.9032C2.70107 17.6791 2 20.7608 2 23.9976ZM40.7586 12.3372C37.4271 7.5574 32.0982 4.2661 25.9752 3.67767C25.6201 3.64355 25.2824 3.68283 24.9728 3.78102C24.3642 3.97396 23.6358 3.97396 23.0272 3.78102C22.7176 3.68283 22.3799 3.64355 22.0248 3.67767C15.9018 4.2661 10.5729 7.55741 7.24142 12.3372C7.04481 12.6193 6.91555 12.9209 6.84706 13.2274C6.71922 13.7992 6.39736 14.3637 5.97072 14.7654C5.7422 14.9806 5.54866 15.2458 5.40617 15.5593C4.23634 18.1332 3.58559 20.9916 3.58559 23.9976C3.58559 27.0037 4.23634 29.8621 5.40617 32.436C5.77089 33.2385 6.47002 33.7243 7.23406 33.8651C7.68349 33.948 8.1289 34.1426 8.38464 34.5213C11.5358 39.188 16.7264 42.3689 22.6809 42.781C23.1371 42.8126 23.529 43.1011 23.8258 43.4489C24.3299 44.0397 25.0998 44.4018 25.9752 44.3176C32.0982 43.7292 37.4271 40.4379 40.7586 35.6581C40.9552 35.376 41.0844 35.0744 41.1529 34.7679C41.2808 34.1961 41.6026 33.6316 42.0293 33.2299C42.2578 33.0147 42.4513 32.7496 42.5938 32.436C43.7637 29.8621 44.4144 27.0037 44.4144 23.9977C44.4144 20.9916 43.7637 18.1332 42.5938 15.5593C42.4513 15.2458 42.2578 14.9806 42.0293 14.7654C41.6026 14.3637 41.2808 13.7992 41.1529 13.2274C41.0844 12.9209 40.9552 12.6193 40.7586 12.3372Z" fill="#25174E"/>
</svg>
