<svg width="44" height="39" viewBox="0 0 44 39" fill="none" xmlns="http://www.w3.org/2000/svg">
    <path d="M31.1 19.2498L33.5641 20.6725C34.2448 21.0655 34.6641 21.7917 34.6641 22.5777V25.423C34.6641 26.209 34.2448 26.9353 33.5641 27.3283L31.1 28.7509C30.4194 29.1439 29.5807 29.1439 28.9 28.7509L26.4359 27.3283C25.7553 26.9353 25.3359 26.209 25.3359 25.423V22.5777C25.3359 21.7917 25.7553 21.0655 26.4359 20.6725L28.9 19.2498C29.5807 18.8568 30.4194 18.8568 31.1 19.2498Z" fill="#25174E" />
    <path fill-rule="evenodd" clip-rule="evenodd" d="M41.3504 7.12539C41.3504 7.64014 41.2681 8.13565 41.116 8.59948C42.6137 9.84856 43.6004 11.7024 43.6004 13.8754V31.8754C43.6004 35.9141 40.1922 38.8504 36.4285 38.8504H8.50039C4.02662 38.8504 0.400391 35.2242 0.400391 30.7504V8.25039C0.400391 3.77662 4.02662 0.150391 8.50039 0.150391H34.3754C38.2276 0.150391 41.3504 3.27318 41.3504 7.12539ZM34.3754 3.75039C36.2046 3.75039 37.6939 5.20557 37.7488 7.02147C37.7499 7.05598 37.7504 7.09063 37.7504 7.12539C37.7504 7.74695 37.247 8.25039 36.6254 8.25039H11.6254C10.7958 8.25039 10 9 10 10C10 11 10.804 11.625 11.6254 11.625H36.4285C36.4946 11.625 36.5602 11.6267 36.6254 11.6301C37.4464 11.6724 38.1944 11.9777 38.7763 12.4583C39.5261 13.0774 40.0004 13.9873 40.0004 15V31.8754C40.0004 33.7366 38.3987 35.2504 36.4285 35.2504H8.50039C6.01484 35.2504 4.00039 33.2359 4.00039 30.7504V8.25039C4.00039 5.76484 6.01484 3.75039 8.50039 3.75039H34.3754Z" fill="#25174E" />
</svg>