<svg width="48" height="38" viewBox="0 0 48 38" fill="none" xmlns="http://www.w3.org/2000/svg">
<g opacity="0.5" filter="url(#filter0_d_4_2784)">
<path d="M12.4388 8.45759C12.7199 8.17659 13.1011 8.01874 13.4985 8.01874C13.896 8.01874 14.2772 8.17659 14.5582 8.45759L23.9906 17.89L33.423 8.45759C33.5613 8.31443 33.7267 8.20024 33.9095 8.12169C34.0924 8.04313 34.2891 8.00179 34.4881 8.00006C34.6871 7.99833 34.8845 8.03625 35.0687 8.11162C35.2529 8.18698 35.4203 8.29828 35.561 8.43901C35.7017 8.57974 35.813 8.74709 35.8884 8.9313C35.9637 9.1155 36.0017 9.31287 35.9999 9.51189C35.9982 9.71091 35.9569 9.90759 35.8783 10.0905C35.7998 10.2733 35.6856 10.4387 35.5424 10.577L25.0503 21.0691C24.7693 21.3501 24.3881 21.5079 23.9906 21.5079C23.5932 21.5079 23.212 21.3501 22.9309 21.0691L12.4388 10.577C12.1579 10.2959 12 9.91473 12 9.51729C12 9.11984 12.1579 8.73867 12.4388 8.45759Z" fill="white"/>
</g>
<defs>
<filter id="filter0_d_4_2784" x="0" y="0" width="48" height="37.5078" filterUnits="userSpaceOnUse" color-interpolation-filters="sRGB">
<feFlood flood-opacity="0" result="BackgroundImageFix"/>
<feColorMatrix in="SourceAlpha" type="matrix" values="0 0 0 0 0 0 0 0 0 0 0 0 0 0 0 0 0 0 127 0" result="hardAlpha"/>
<feOffset dy="4"/>
<feGaussianBlur stdDeviation="6"/>
<feComposite in2="hardAlpha" operator="out"/>
<feColorMatrix type="matrix" values="0 0 0 0 0 0 0 0 0 0 0 0 0 0 0 0 0 0 0.25 0"/>
<feBlend mode="normal" in2="BackgroundImageFix" result="effect1_dropShadow_4_2784"/>
<feBlend mode="normal" in="SourceGraphic" in2="effect1_dropShadow_4_2784" result="shape"/>
</filter>
</defs>
</svg>
