<svg width="40" height="40" viewBox="0 0 40 40" fill="none" xmlns="http://www.w3.org/2000/svg">
<g filter="url(#filter0_b_4_2515)">
<rect width="40" height="40" rx="20" fill="black" fill-opacity="0.3"/>
</g>
<path d="M11.9637 28H27.6429C29.5736 28 30.6065 26.9652 30.6065 25.0517V15.9137C30.6065 13.9996 29.5717 12.9654 27.6429 12.9654H25.3583C25.1057 12.9944 24.8498 12.9593 24.6142 12.8634C24.3786 12.7675 24.171 12.6138 24.0105 12.4165L23.3233 11.712C23.0951 11.4649 22.8136 11.273 22.5001 11.1509C22.1866 11.0288 21.8494 10.9798 21.5142 11.0076H18.0596C17.7244 10.9798 17.3872 11.0288 17.0737 11.1509C16.7603 11.273 16.4787 11.4649 16.2505 11.712L15.564 12.4165C15.4033 12.6136 15.1956 12.767 14.9601 12.8627C14.7245 12.9584 14.4687 12.9933 14.2161 12.9642H11.9637C10.033 12.9642 9 13.999 9 15.9125V25.0505C8.99815 26.9652 10.033 28 11.9637 28ZM12.1489 26.0088C11.9908 26.0289 11.8302 26.0122 11.6796 25.9601C11.5289 25.908 11.3923 25.8218 11.2805 25.7083C11.1686 25.5948 11.0844 25.457 11.0344 25.3057C10.9845 25.1543 10.9701 24.9935 10.9925 24.8356V16.1298C10.9701 15.972 10.9845 15.8111 11.0344 15.6598C11.0844 15.5084 11.1686 15.3706 11.2805 15.2571C11.3923 15.1436 11.5289 15.0574 11.6796 15.0053C11.8302 14.9532 11.9908 14.9366 12.1489 14.9567H14.8422C15.1397 14.9941 15.4419 14.9583 15.7223 14.8521C16.0028 14.746 16.253 14.5729 16.4512 14.3479L17.0952 13.6514C17.2697 13.4214 17.5006 13.2405 17.7657 13.1261C18.0308 13.0117 18.3209 12.9679 18.6079 12.9988H20.9647C21.2485 12.9664 21.5358 13.0087 21.7982 13.1216C22.0606 13.2344 22.289 13.4139 22.4607 13.6421L23.1214 14.3466C23.3196 14.5717 23.5698 14.7448 23.8503 14.8509C24.1307 14.957 24.4329 14.9929 24.7304 14.9554H27.4613C27.6199 14.9352 27.7809 14.9516 27.9321 15.0035C28.0832 15.0554 28.2204 15.1414 28.333 15.2548C28.4457 15.3682 28.5307 15.506 28.5816 15.6575C28.6324 15.809 28.6478 15.9702 28.6264 16.1286V24.8344C28.6478 24.9928 28.6324 25.154 28.5816 25.3055C28.5307 25.457 28.4457 25.5948 28.333 25.7082C28.2204 25.8216 28.0832 25.9075 27.9321 25.9594C27.7809 26.0114 27.6199 26.0278 27.4613 26.0075L12.1489 26.0088ZM19.8076 15.3907C18.8668 15.3807 17.9482 15.6767 17.1903 16.2341C17.0927 16.2886 17.0075 16.3629 16.9402 16.4522C16.873 16.5415 16.8251 16.6438 16.7997 16.7527C16.7743 16.8616 16.7719 16.9746 16.7927 17.0844C16.8135 17.1943 16.857 17.2986 16.9205 17.3906C16.9842 17.4749 17.0644 17.5453 17.1563 17.5975C17.2482 17.6497 17.3497 17.6826 17.4548 17.6942C17.5598 17.7057 17.6661 17.6957 17.7672 17.6648C17.8682 17.6338 17.9618 17.5825 18.0423 17.5141C18.5427 17.1132 19.1665 16.898 19.8076 16.9053C20.492 16.8973 21.1605 17.1118 21.7126 17.5164C22.2647 17.921 22.6704 18.494 22.8688 19.1491H22.0964C21.6642 19.1491 21.5222 19.5751 21.7834 19.9233L23.1418 21.7497C23.1911 21.8285 23.2597 21.8935 23.3411 21.9386C23.4225 21.9837 23.514 22.0073 23.607 22.0073C23.7 22.0073 23.7915 21.9837 23.8729 21.9386C23.9543 21.8935 24.0229 21.8285 24.0722 21.7497L25.4084 19.9215C25.6603 19.5652 25.5386 19.1472 25.104 19.1472H24.363C24.1776 18.0802 23.6162 17.1148 22.7806 16.4258C21.9451 15.7367 20.8904 15.3696 19.8076 15.3907ZM14.4946 20.8081H15.2596C15.4463 21.8749 16.0081 22.8397 16.8436 23.5287C17.6792 24.2176 18.7335 24.5852 19.8162 24.5652C20.7574 24.5766 21.6766 24.2805 22.4342 23.7218C22.5336 23.6691 22.6206 23.5957 22.6893 23.5066C22.758 23.4174 22.8068 23.3146 22.8323 23.205C22.8579 23.0954 22.8597 22.9816 22.8375 22.8712C22.8154 22.7609 22.7699 22.6566 22.704 22.5653C22.6404 22.4809 22.5602 22.4103 22.4683 22.358C22.3764 22.3057 22.2748 22.2728 22.1697 22.2612C22.0646 22.2496 21.9583 22.2597 21.8572 22.2907C21.7562 22.3218 21.6625 22.3732 21.5821 22.4418C21.0804 22.8403 20.4575 23.0552 19.8169 23.0506C19.1329 23.0574 18.4651 22.8426 17.9133 22.4384C17.3615 22.0342 16.9554 21.4623 16.7556 20.8081H17.5033C17.9355 20.8081 18.0775 20.3821 17.8077 20.0338L16.4599 18.2081C16.4097 18.1289 16.3404 18.0637 16.2583 18.0185C16.1762 17.9733 16.084 17.9496 15.9903 17.9496C15.8966 17.9496 15.8044 17.9733 15.7223 18.0185C15.6402 18.0637 15.5709 18.1289 15.5207 18.2081L14.1902 20.0345C13.929 20.3907 14.0593 20.8081 14.4946 20.8081Z" fill="white"/>
<defs>
<filter id="filter0_b_4_2515" x="-20" y="-20" width="80" height="80" filterUnits="userSpaceOnUse" color-interpolation-filters="sRGB">
<feFlood flood-opacity="0" result="BackgroundImageFix"/>
<feGaussianBlur in="BackgroundImage" stdDeviation="10"/>
<feComposite in2="SourceAlpha" operator="in" result="effect1_backgroundBlur_4_2515"/>
<feBlend mode="normal" in="SourceGraphic" in2="effect1_backgroundBlur_4_2515" result="shape"/>
</filter>
</defs>
</svg>
