<svg width="18" height="18" viewBox="0 0 18 18" fill="none" xmlns="http://www.w3.org/2000/svg">
<path d="M2.27094 0.373837L9 7.1029L15.7014 0.401528C15.8188 0.276525 15.9603 0.176526 16.1173 0.107529C16.2743 0.0385325 16.4437 0.00195827 16.6152 0C16.9824 0 17.3346 0.145875 17.5942 0.405534C17.8539 0.665194 17.9998 1.01737 17.9998 1.38458C18.003 1.55433 17.9715 1.72295 17.9072 1.8801C17.8429 2.03724 17.7472 2.17959 17.6259 2.2984L10.8553 8.99978L17.6259 15.7704C17.8541 15.9936 17.988 16.2959 17.9998 16.615C17.9998 16.9822 17.8539 17.3344 17.5942 17.594C17.3346 17.8537 16.9824 17.9996 16.6152 17.9996C16.4387 18.0069 16.2627 17.9774 16.0982 17.9131C15.9337 17.8487 15.7845 17.7509 15.6598 17.6257L9 10.8967L2.28478 17.6119C2.16779 17.7327 2.02803 17.8292 1.87357 17.8957C1.7191 17.9623 1.55298 17.9975 1.38481 17.9996C1.01759 17.9996 0.665419 17.8537 0.40576 17.594C0.1461 17.3344 0.000225279 16.9822 0.000225279 16.615C-0.00300286 16.4452 0.0284922 16.2766 0.0927777 16.1195C0.157063 15.9623 0.252783 15.82 0.374062 15.7011L7.14466 8.99978L0.374062 2.22918C0.145862 2.00592 0.0120491 1.70361 0.000225279 1.38458C0.000225279 1.01737 0.1461 0.665194 0.40576 0.405534C0.665419 0.145875 1.01759 0 1.38481 0C1.71711 0.00415374 2.03556 0.138458 2.27094 0.373837Z" fill="white"/>
</svg>
