<svg width="8" height="8" viewBox="0 0 8 8" fill="none" xmlns="http://www.w3.org/2000/svg">
<path fill-rule="evenodd" clip-rule="evenodd" d="M0.791625 0.791686C1.11381 0.469503 1.63617 0.469503 1.95835 0.791686L3.99999 2.83332L6.04162 0.791686C6.36381 0.469503 6.88617 0.469503 7.20835 0.791686C7.53053 1.11387 7.53053 1.63623 7.20835 1.95841L5.16671 4.00005L7.20835 6.04168C7.53053 6.36387 7.53053 6.88623 7.20835 7.20841C6.88617 7.53059 6.36381 7.53059 6.04162 7.20841L3.99999 5.16677L1.95835 7.20841C1.63617 7.53059 1.11381 7.53059 0.791625 7.20841C0.469442 6.88623 0.469442 6.36387 0.791625 6.04168L2.83326 4.00005L0.791625 1.95841C0.469442 1.63623 0.469442 1.11387 0.791625 0.791686Z" fill="#362566"/>
</svg>
