<svg width="28" height="28" viewBox="0 0 28 28" fill="none" xmlns="http://www.w3.org/2000/svg">
<path d="M19.3863 4.37738C19.6644 4.09921 19.9947 3.87856 20.3581 3.72802C20.7215 3.57748 21.1111 3.5 21.5045 3.5C21.8978 3.5 22.2874 3.57748 22.6508 3.72802C23.0142 3.87856 23.3445 4.09921 23.6226 4.37738C23.9008 4.65554 24.1214 4.98576 24.272 5.3492C24.4225 5.71264 24.5 6.10217 24.5 6.49555C24.5 6.88893 24.4225 7.27846 24.272 7.64189C24.1214 8.00533 23.9008 8.33556 23.6226 8.61372L9.32497 22.9114L3.5 24.5L5.08863 18.675L19.3863 4.37738Z" stroke="#362566" stroke-width="2" stroke-linecap="round" stroke-linejoin="round"/>
</svg>
