<svg width="40" height="40" viewBox="0 0 40 40" fill="none" xmlns="http://www.w3.org/2000/svg">
<g filter="url(#filter0_b_4_2518)">
<rect width="40" height="40" rx="20" fill="black" fill-opacity="0.3"/>
</g>
<path d="M20 30C22.6483 29.985 25.1838 28.926 27.0561 27.0529C28.9283 25.1798 29.9862 22.6438 30 19.9954C29.9838 17.3487 28.9249 14.815 27.0529 12.9439C25.1809 11.0727 22.6468 10.015 20 10C17.3527 10.0128 14.8173 11.0697 12.9448 12.9412C11.0724 14.8127 10.0141 17.3475 10 19.9949C10.0137 22.6433 11.0714 25.1794 12.9437 27.0527C14.816 28.9259 17.3516 29.985 20 30ZM20 27.752C18.9816 27.7537 17.9729 27.554 17.0318 27.1646C16.0908 26.7752 15.236 26.2036 14.5166 25.4828C13.7972 24.7619 13.2273 23.906 12.8398 22.9642C12.4522 22.0224 12.2546 21.0133 12.2583 19.9949C12.2539 18.9767 12.4511 17.9678 12.8386 17.0262C13.226 16.0846 13.796 15.2291 14.5157 14.5089C15.2353 13.7886 16.0905 13.218 17.0318 12.8299C17.973 12.4418 18.9818 12.2438 20 12.2474C21.018 12.2474 22.0261 12.4479 22.9667 12.8375C23.9072 13.2271 24.7618 13.7982 25.4817 14.518C26.2016 15.2379 26.7726 16.0925 27.1622 17.033C27.5518 17.9736 27.7523 18.9817 27.7523 19.9997C27.7523 21.0178 27.5518 22.0258 27.1622 22.9664C26.7726 23.9069 26.2016 24.7615 25.4817 25.4814C24.7618 26.2013 23.9072 26.7723 22.9667 27.1619C22.0261 27.5515 21.018 27.752 20 27.752ZM15.904 20.6166C15.9042 20.6805 15.9174 20.7438 15.9429 20.8025C15.9684 20.8612 16.0055 20.914 16.0521 20.9579C16.0987 21.0017 16.1537 21.0356 16.2138 21.0575C16.2739 21.0794 16.3379 21.0888 16.4017 21.0851H19.4543L17.8274 25.4097C17.5691 26.0794 18.2846 26.4617 18.7463 25.9166L23.8274 19.6509C23.9289 19.5374 23.9866 19.3916 23.9903 19.2394C23.9893 19.1757 23.9755 19.1128 23.9498 19.0545C23.924 18.9962 23.8869 18.9437 23.8404 18.9C23.794 18.8563 23.7393 18.8223 23.6796 18.8002C23.6198 18.778 23.5562 18.768 23.4926 18.7709H20.4423L22.0691 14.4571C22.3274 13.7874 21.612 13.4051 21.16 13.9429L16.0669 20.2149C15.9672 20.3256 15.9096 20.4677 15.904 20.6166Z" fill="white"/>
<defs>
<filter id="filter0_b_4_2518" x="-20" y="-20" width="80" height="80" filterUnits="userSpaceOnUse" color-interpolation-filters="sRGB">
<feFlood flood-opacity="0" result="BackgroundImageFix"/>
<feGaussianBlur in="BackgroundImage" stdDeviation="10"/>
<feComposite in2="SourceAlpha" operator="in" result="effect1_backgroundBlur_4_2518"/>
<feBlend mode="normal" in="SourceGraphic" in2="effect1_backgroundBlur_4_2518" result="shape"/>
</filter>
</defs>
</svg>
