<svg width="16" height="15" viewBox="0 0 16 15" fill="none" xmlns="http://www.w3.org/2000/svg">
<path fill-rule="evenodd" clip-rule="evenodd" d="M7.99996 0.166748C3.94987 0.166748 0.666626 3.44999 0.666626 7.50008C0.666626 11.5502 3.94987 14.8334 7.99996 14.8334C12.05 14.8334 15.3333 11.5502 15.3333 7.50008C15.3333 3.44999 12.05 0.166748 7.99996 0.166748ZM5.98017 1.70421C6.61268 1.48381 7.29233 1.36403 7.99996 1.36403C8.51936 1.36403 9.02368 1.42856 9.50535 1.55005V2.76063L7.70391 3.8007L5.98017 2.8055V1.70421ZM4.78289 2.27398C4.08955 2.70169 3.48774 3.26352 3.01363 3.92329C3.28105 4.10316 3.44336 4.40522 3.44336 4.73039V6.84175L5.41089 7.9777C5.71187 8.15147 5.89729 8.47262 5.89729 8.82016V11.1146C5.89729 11.4622 5.71187 11.7833 5.41089 11.9571L4.45489 12.5091C5.21545 13.0483 6.10417 13.4187 7.06641 13.5656V12.9099C7.06641 12.5624 7.25183 12.2412 7.55281 12.0675L9.53989 10.9202C9.84087 10.7465 10.2117 10.7465 10.5127 10.9202L12.2517 11.9243C13.104 11.1051 13.72 10.042 13.9876 8.84732L12.395 7.92781L10.5127 9.01458C10.2117 9.18835 9.84087 9.18835 9.53989 9.01458L7.55281 7.86734C7.25183 7.69356 7.06641 7.37242 7.06641 7.02488V4.81514L5.26929 3.77757C4.96831 3.6038 4.78289 3.28265 4.78289 2.93511V2.27398ZM14.1358 7.55037C14.1359 7.53362 14.136 7.51686 14.136 7.50008C14.136 6.47257 13.8835 5.50405 13.437 4.6532L13.0011 4.90487V6.89527L14.1358 7.55037ZM12.7539 3.62023C12.2015 2.94414 11.5077 2.38808 10.7176 1.99715V2.8055L12.4414 3.8007L12.7539 3.62023ZM11.2311 12.7175L10.0263 12.0219L8.26369 13.0395V13.6306C9.34967 13.5846 10.3626 13.2565 11.2311 12.7175ZM3.50376 11.6757L4.70001 10.985V8.94977L2.93742 7.93214L1.94574 8.50469C2.14569 9.7188 2.70204 10.8128 3.50376 11.6757ZM1.87618 7.10883L2.24608 6.89527V5.36362C2.04217 5.91256 1.91458 6.49859 1.87618 7.10883ZM10.0651 3.8648L8.26369 4.90487V6.89527L10.0263 7.9129L11.7889 6.89527V4.86L10.0651 3.8648Z" fill="#F8F8F8"/>
</svg>
