<svg width="100" height="112" viewBox="0 0 100 112" fill="none" xmlns="http://www.w3.org/2000/svg">
<g filter="url(#filter0_d_3374_2031)">
<path d="M20 32C20 23.1634 27.1634 16 36 16H52C60.8366 16 68 23.1634 68 32V48C68 56.8366 60.8366 64 52 64H36C27.1634 64 20 56.8366 20 48V32Z" fill="#F8F8F8"/>
<path d="M30.1821 45.325C30.3729 45.7543 30.6581 46.1377 31.0178 46.4481C31.3775 46.7585 31.8028 46.9883 32.2637 47.1213C33.6111 47.5221 35.0267 47.6592 36.4289 47.5246C37.926 48.938 39.8108 49.9008 41.8567 50.2971C43.9026 50.6935 46.0226 50.5065 47.962 49.7589C49.9014 49.0112 51.5776 47.7345 52.7892 46.0823C54.0008 44.4301 54.6962 42.4726 54.7919 40.4451C57.1913 38.5161 58.5245 36.4587 57.8053 34.6838C57.6001 34.1574 57.2654 33.688 56.8304 33.3168C56.3955 32.9455 55.8736 32.6837 55.3105 32.5542C54.1807 32.3341 53.0098 32.4341 51.9368 32.8424C50.4499 31.2946 48.518 30.2187 46.3931 29.7553C44.2683 29.2918 42.0492 29.4622 40.0254 30.2442C38.0016 31.0263 36.2671 32.3837 35.0481 34.1393C33.8292 35.8949 33.1824 37.9672 33.1923 40.0858C31.4954 40.9927 29.3591 43.314 30.1821 45.325ZM32.4218 44.4733C32.2759 44.1101 32.8623 43.296 33.5647 42.6849C33.8057 43.5729 34.1616 44.4275 34.624 45.2282C33.3357 45.1458 32.5749 44.8515 32.4218 44.4733ZM50.9595 44.5957C49.7071 46.3897 47.7748 47.6277 45.586 48.0385C44.0952 48.3135 42.5559 48.1985 41.1257 47.705C40.6559 47.5348 40.2042 47.3206 39.7769 47.0654C41.9472 46.6351 44.0734 46.016 46.1298 45.2155C48.1939 44.4267 50.1828 43.4632 52.0738 42.3361C51.8258 43.1412 51.4498 43.9036 50.9595 44.5957ZM54.7206 34.85C54.9128 34.8851 55.0923 34.9681 55.2416 35.0909C55.391 35.2137 55.5051 35.372 55.5728 35.5505C55.7259 35.9287 55.3668 36.6488 54.4843 37.5699C54.258 36.6309 53.9031 35.7257 53.4292 34.8786C53.8523 34.7774 54.2931 34.7677 54.7206 34.85ZM37.0351 35.4281C37.6511 34.5322 38.4442 33.7644 39.3681 33.1696C40.2921 32.5747 41.3284 32.1647 42.4168 31.9633C43.9113 31.6806 45.4566 31.7972 46.8884 32.3007C48.2619 32.7767 49.4823 33.5961 50.4271 34.6765C51.3718 35.757 52.0075 37.0604 52.2703 38.4557C52.333 38.7412 52.3745 39.0307 52.3945 39.322C50.1808 40.8364 47.7842 42.0802 45.2585 43.0254C42.7424 44.0447 40.1059 44.756 37.4095 45.143C36.2977 43.7801 35.6606 42.1083 35.5903 40.3697C35.5201 38.631 36.0203 36.9158 37.0186 35.4721L37.0351 35.4281Z" fill="#362566"/>
</g>
<defs>
<filter id="filter0_d_3374_2031" x="-12" y="0" width="112" height="112" filterUnits="userSpaceOnUse" color-interpolation-filters="sRGB">
<feFlood flood-opacity="0" result="BackgroundImageFix"/>
<feColorMatrix in="SourceAlpha" type="matrix" values="0 0 0 0 0 0 0 0 0 0 0 0 0 0 0 0 0 0 127 0" result="hardAlpha"/>
<feOffset dy="16"/>
<feGaussianBlur stdDeviation="16"/>
<feComposite in2="hardAlpha" operator="out"/>
<feColorMatrix type="matrix" values="0 0 0 0 0 0 0 0 0 0 0 0 0 0 0 0 0 0 0.25 0"/>
<feBlend mode="normal" in2="BackgroundImageFix" result="effect1_dropShadow_3374_2031"/>
<feBlend mode="normal" in="SourceGraphic" in2="effect1_dropShadow_3374_2031" result="shape"/>
</filter>
</defs>
</svg>
