<svg width="64" height="64" viewBox="0 0 64 64" fill="none" xmlns="http://www.w3.org/2000/svg">
<g filter="url(#filter0_d_3374_2101)">
<path d="M8 20C8 11.1634 15.1634 4 24 4H40C48.8366 4 56 11.1634 56 20V36C56 44.8366 48.8366 52 40 52H24C15.1634 52 8 44.8366 8 36V20Z" fill="#F8F8F8"/>
<path fill-rule="evenodd" clip-rule="evenodd" d="M34.7178 16.6347C33.8291 16.4442 32.9222 16.3432 32.0117 16.3334L32.0056 16.3334C31.0902 16.3438 30.1783 16.4447 29.2844 16.6345C28.9743 16.6997 28.6917 16.8571 28.4773 17.0865C28.2629 17.3161 28.1278 17.6068 28.0933 17.9167L27.8926 19.6408C27.8759 19.7842 27.8243 19.9227 27.7412 20.045C27.6581 20.1673 27.5455 20.2704 27.4117 20.345C27.2779 20.4197 27.127 20.4637 26.9711 20.4727C26.8157 20.4818 26.6605 20.4558 26.518 20.3973L24.8695 19.7009L24.8662 19.6995C24.5774 19.5818 24.2586 19.552 23.9523 19.6136C23.6458 19.6752 23.3648 19.8257 23.1476 20.0467L23.1462 20.0482C21.8911 21.3441 20.9535 22.8939 20.4027 24.5842L20.4024 24.5854C20.3076 24.8807 20.3108 25.1974 20.4117 25.4908C20.5126 25.7841 20.7053 26.038 20.9609 26.2186L22.4234 27.2531C22.5476 27.3408 22.6475 27.4545 22.7159 27.5843C22.7843 27.714 22.8196 27.8567 22.8196 28.0009C22.8196 28.145 22.7843 28.2877 22.7159 28.4174C22.6475 28.5472 22.5471 28.6612 22.4229 28.7489L20.961 29.7855C20.7046 29.9665 20.5115 30.2211 20.4108 30.5152C20.31 30.8095 20.3075 31.1273 20.4036 31.4231C20.954 33.1145 21.8918 34.6656 23.1471 35.9626C23.2905 36.1105 23.4637 36.2276 23.6554 36.3069C23.8467 36.3862 24.0527 36.4263 24.2604 36.4252C24.4681 36.4251 24.6744 36.3848 24.8672 36.3047L24.8685 36.3042L26.525 35.6059C26.6667 35.5473 26.8212 35.5212 26.976 35.53C27.1311 35.5389 27.2813 35.5824 27.4145 35.6567C27.5476 35.7309 27.6596 35.8334 27.7423 35.9552C27.8249 36.0769 27.8761 36.2146 27.8925 36.3573L28.0919 38.0872C28.128 38.3917 28.261 38.6766 28.4706 38.9035C28.6801 39.1302 28.9559 39.288 29.2596 39.3572C30.1573 39.5627 31.0779 39.6667 32.0007 39.6667C32.9224 39.6654 33.8409 39.5607 34.7374 39.3548C35.0427 39.2857 35.32 39.1273 35.5304 38.8994C35.7411 38.6712 35.8743 38.3842 35.9096 38.0779L36.108 36.3457L36.1084 36.3419C36.1228 36.1987 36.1726 36.0601 36.2545 35.9376C36.3364 35.815 36.4484 35.7118 36.5819 35.6374C36.7154 35.5629 36.8662 35.5197 37.0218 35.5118C37.1774 35.504 37.3323 35.5318 37.4737 35.5926L37.4758 35.5935L39.1328 36.2903C39.4215 36.4121 39.7417 36.4445 40.0497 36.3835C40.3578 36.3225 40.6403 36.1705 40.857 35.9469C42.1104 34.6514 43.0471 33.1018 43.5971 31.4127C43.6925 31.1172 43.6897 30.8001 43.5889 30.5063C43.4883 30.2127 43.2955 29.9584 43.0396 29.7774L41.5739 28.7406L41.5727 28.7397C41.448 28.6526 41.3477 28.5391 41.279 28.4094C41.2104 28.2797 41.175 28.1371 41.1752 27.9929C41.1754 27.8487 41.2111 27.7061 41.2801 27.5766C41.3491 27.447 41.4497 27.3338 41.5747 27.2469L41.5767 27.2455L43.0343 26.2122C43.2915 26.0317 43.4853 25.7772 43.5863 25.4828C43.6876 25.1881 43.6901 24.87 43.5936 24.5738C43.0444 22.8842 42.1068 21.3347 40.852 20.0402C40.6346 19.8172 40.352 19.6658 40.0439 19.6049C39.7358 19.544 39.415 19.5763 39.126 19.6976L37.4767 20.3935C37.335 20.4527 37.1802 20.4793 37.025 20.4708C36.8697 20.4622 36.7193 20.4187 36.5859 20.3444C36.4525 20.2701 36.3404 20.1674 36.2577 20.0455C36.1752 19.9235 36.1241 19.7846 36.1079 19.6417L35.9079 17.918C35.873 17.6083 35.738 17.3184 35.5239 17.0886C35.3098 16.8589 35.0276 16.7009 34.7178 16.6347ZM33.7323 37.3334L33.8723 36.1146C33.9261 35.6262 34.0995 35.157 34.3774 34.7465C34.6555 34.336 35.0301 33.9954 35.4699 33.7519C35.9096 33.5084 36.4025 33.3685 36.9082 33.343C37.4137 33.3176 37.9186 33.4072 38.3819 33.6048L39.5545 34.097C40.2965 33.2472 40.8809 32.2823 41.2827 31.2443L40.253 30.5156C39.8429 30.2283 39.5076 29.8511 39.2764 29.4145C39.0451 28.9778 38.9241 28.494 38.9241 28.0029C38.9241 27.5117 39.0451 27.028 39.2764 26.5912C39.5077 26.1546 39.8426 25.7776 40.2529 25.4902L41.2835 24.7635C40.8817 23.7241 40.2959 22.7583 39.5514 21.9087L38.3776 22.4013L38.3759 22.402C37.8081 22.6358 37.1833 22.7097 36.5741 22.6157C35.9649 22.5216 35.3948 22.2631 34.9308 21.869L34.9295 21.8679C34.3355 21.3571 33.9571 20.6514 33.8707 19.8854L33.736 18.6766C33.1672 18.5815 32.5912 18.53 32.0138 18.5227C31.4317 18.53 30.8504 18.5816 30.2763 18.6776L30.1357 19.8928C30.0458 20.6574 29.6663 21.3618 29.073 21.872C28.4799 22.3821 27.7141 22.6637 26.9214 22.6661C26.4758 22.6669 26.0342 22.5781 25.6258 22.4052L24.4526 21.9128C23.7091 22.7627 23.1239 23.7283 22.722 24.7672L23.7519 25.4966C24.1599 25.785 24.4926 26.1621 24.7224 26.5982C24.9521 27.0344 25.0722 27.517 25.0722 28.007C25.0722 28.4969 24.9521 28.9795 24.7224 29.4157C24.4927 29.8517 24.16 30.2288 23.7522 30.5171L22.7193 31.2491C23.1208 32.2894 23.7062 33.2562 24.4503 34.107L25.6314 33.6132C26.1982 33.3819 26.8209 33.3093 27.4282 33.4034C28.0355 33.4974 28.6039 33.7544 29.0675 34.1461L29.069 34.1474C29.6622 34.6557 30.0414 35.3583 30.1305 36.1217L30.2721 37.3334C31.4159 37.5344 32.5884 37.5345 33.7323 37.3334Z" fill="#362566"/>
<path fill-rule="evenodd" clip-rule="evenodd" d="M32.0002 23.6598C30.806 23.6598 29.6586 24.1147 28.8108 24.928C27.9626 25.7417 27.4838 26.8478 27.4838 28.0037C27.4838 29.1596 27.9626 30.2657 28.8108 31.0794C29.6586 31.8927 30.806 32.3476 32.0002 32.3476C33.1945 32.3476 34.3419 31.8927 35.1897 31.0794C36.0379 30.2657 36.5167 29.1596 36.5167 28.0037C36.5167 26.8478 36.0379 25.7417 35.1897 24.928C34.3419 24.1147 33.1945 23.6598 32.0002 23.6598ZM32.0002 25.8418C31.3958 25.8418 30.8183 26.0722 30.3942 26.479C29.9706 26.8854 29.7348 27.4341 29.7348 28.0037C29.7348 28.5733 29.9706 29.122 30.3942 29.5284C30.8183 29.9352 31.3958 30.1656 32.0002 30.1656C32.6047 30.1656 33.1822 29.9352 33.6063 29.5284C34.0299 29.122 34.2657 28.5733 34.2657 28.0037C34.2657 27.4341 34.0299 26.8854 33.6063 26.479C33.1822 26.0722 32.6047 25.8418 32.0002 25.8418Z" fill="#362566"/>
</g>
<defs>
<filter id="filter0_d_3374_2101" x="0" y="0" width="64" height="64" filterUnits="userSpaceOnUse" color-interpolation-filters="sRGB">
<feFlood flood-opacity="0" result="BackgroundImageFix"/>
<feColorMatrix in="SourceAlpha" type="matrix" values="0 0 0 0 0 0 0 0 0 0 0 0 0 0 0 0 0 0 127 0" result="hardAlpha"/>
<feOffset dy="4"/>
<feGaussianBlur stdDeviation="4"/>
<feComposite in2="hardAlpha" operator="out"/>
<feColorMatrix type="matrix" values="0 0 0 0 0 0 0 0 0 0 0 0 0 0 0 0 0 0 0.25 0"/>
<feBlend mode="normal" in2="BackgroundImageFix" result="effect1_dropShadow_3374_2101"/>
<feBlend mode="normal" in="SourceGraphic" in2="effect1_dropShadow_3374_2101" result="shape"/>
</filter>
</defs>
</svg>
